# xmcd
#
# Track frame offsets: 
#        150
#        23340
#        48367
#        67942
#        89742
#        107595
#        132765
#        151877
#        162470
#        180955
#        194537
#        210077
#        228409
#        245440
#        259650
#        284045
#        304700
#
# Disc length: 4325 seconds
#
# Revision: 1
# Processed by: cddbd v1.5.2PL0 Copyright (c) Steve Scherf et al.
# Submitted via: ExactAudioCopy v0.99pb5
#
DISCID=dc10e311
DTITLE=Elvis Presley - The Jungle Room Sessions
DYEAR=2000
DGENRE=Pop
TTITLE0=Bitter They Are, Harder They Fall (take 2-5)
TTITLE1=She Thinks I Still Care (take 2A)
TTITLE2=The Last Farewell (take 2)
TTITLE3=Solitaire (take 3)
TTITLE4=I'll Never Fall in Love Again (take 5)
TTITLE5=Moody Blue (take 3)
TTITLE6=For the Heart (take 2-3)
TTITLE7=Hurt (take 3)
TTITLE8=Danny Boy (take 8)
TTITLE9=Never Again (take 11)
TTITLE10=Love Coming Down (take 2)
TTITLE11=Blue Eyes Crying in the Rain (take 2)
TTITLE12=It Easy for You (take 1)
TTITLE13=Way Down (take 2)
TTITLE14=Pledging My Love (unedited master)
TTITLE15=He'll Have to Go (rough mix-master)
TTITLE16=Fire Down Below (instrumental)
EXTD=74321 74931 2\nFollow That Dream Recordings No.4
EXTT0=
EXTT1=
EXTT2=
EXTT3=
EXTT4=
EXTT5=
EXTT6=
EXTT7=
EXTT8=
EXTT9=
EXTT10=
EXTT11=
EXTT12=
EXTT13=
EXTT14=
EXTT15=
EXTT16=
PLAYORDER=
